<svg xmlns="http://www.w3.org/2000/svg" viewBox="0 0 720 720" fill="currentColor"><polygon points="360 441.68 186.25 441.68 360 267.33 360 441.68"></polygon><polygon points="360 441.68 360 267.33 533.74 267.33 360 441.68"></polygon><rect x="186.25" y="441.14" width="173.75" height="174.35"></rect><path d="M180.69,267.33h5.57v174.35H12.51v-6.17c0-92.82,75.36-168.18,168.18-168.18Z"></path><path d="M444.08,441.14h89.66v90.26c0,46.41-37.68,84.09-84.09,84.09h-5.57c-46.41,0-84.09-37.68-84.09-84.09v-6.17c0-46.41,37.68-84.09,84.09-84.09Z"></path><path d="M270.34,92.98h5.57c46.41,0,84.09,37.68,84.09,84.09v6.17c0,46.41-37.68,84.09-84.09,84.09h-89.66v-90.26c0-46.41,37.68-84.09,84.09-84.09Z"></path><rect x="360" y="92.98" width="173.75" height="174.35"></rect><path d="M533.74,267.33h173.75v6.17c0,92.82-75.36,168.18-168.18,168.18h-5.57v-174.35h0Z"></path></svg>